<svg xmlns="http://www.w3.org/2000/svg" xmlns:xlink="http://www.w3.org/1999/xlink" style="margin:auto;background:#012c32;display:block;z-index:1;position:relative" width="1920" height="969" preserveAspectRatio="xMidYMid" viewBox="0 0 1920 969">
<g transform="translate(960,484.5) scale(1,1) translate(-960,-484.5)"><path d="M-100 583.44C-64.75 584.66 -65.77 564.7 -31.61 564.7S2.69 578.75 36.77 578.75S72.2 566.7 105.16 566.7S140.31 568.45 173.55 568.45S208.37 577.53 241.94 577.53S276.98 565.47 310.32 565.47S345.06 578.93 378.71 578.93S414.93 583.42 447.1 583.42S482.39 572.02 515.48 572.02S551.97 574.73 583.87 574.73S619.91 575.56 652.26 575.56S687.6 567.52 720.65 567.52S756.92 580.48 789.03 580.48S824.4 579.17 857.42 579.17S892.73 568.68 925.81 568.68S962.06 580.23 994.19 580.23S1028.74 582.76 1062.58 582.76S1098.6 574.11 1130.97 574.11S1165.63 562.41 1199.35 562.41S1235 562.19 1267.74 562.19S1302.63 570.81 1336.13 570.81S1372.49 585.98 1404.52 585.98S1439.13 572.06 1472.9 572.06S1507.42 574.98 1541.29 574.98S1575.62 574.53 1609.68 574.53S1644.52 563.18 1678.06 563.18S1712.99 569.01 1746.45 569.01S1781.1 573.67 1814.84 573.67S1849.77 565.42 1883.23 565.42S1919.09 576.73 1951.61 576.73S1988.05 581.97 2020 581.97S2056.32 568.47 2088.39 568.47L2020 969 L-100 969 Z" fill="#0F3135" stroke-width="0px">
  <animate attributeName="d" dur="25s" repeatCount="indefinite" values="M-100 583.44C-64.75 584.66 -65.77 564.7 -31.61 564.7S2.69 578.75 36.77 578.75S72.2 566.7 105.16 566.7S140.31 568.45 173.55 568.45S208.37 577.53 241.94 577.53S276.98 565.47 310.32 565.47S345.06 578.93 378.71 578.93S414.93 583.42 447.1 583.42S482.39 572.02 515.48 572.02S551.97 574.73 583.87 574.73S619.91 575.56 652.26 575.56S687.6 567.52 720.65 567.52S756.92 580.48 789.03 580.48S824.4 579.17 857.42 579.17S892.73 568.68 925.81 568.68S962.06 580.23 994.19 580.23S1028.74 582.76 1062.58 582.76S1098.6 574.11 1130.97 574.11S1165.63 562.41 1199.35 562.41S1235 562.19 1267.74 562.19S1302.63 570.81 1336.13 570.81S1372.49 585.98 1404.52 585.98S1439.13 572.06 1472.9 572.06S1507.42 574.98 1541.29 574.98S1575.62 574.53 1609.68 574.53S1644.52 563.18 1678.06 563.18S1712.99 569.01 1746.45 569.01S1781.1 573.67 1814.84 573.67S1849.77 565.42 1883.23 565.42S1919.09 576.73 1951.61 576.73S1988.05 581.97 2020 581.97S2056.32 568.47 2088.39 568.47L2020 969 L-100 969 Z;M-100 569.85C-64.85 584.84 -63.48 570.01 -31.61 570.01S4.34 568.5 36.77 568.5S72.99 583.07 105.16 583.07S140.1 575.73 173.55 575.73S209.34 573.26 241.94 573.26S276.59 568.29 310.32 568.29S344.53 564.14 378.71 564.14S413.06 572.92 447.1 572.92S482.81 584.86 515.48 584.86S551.05 569.64 583.87 569.64S620.22 581.54 652.26 581.54S688 573.03 720.65 573.03S757.17 571.54 789.03 571.54S823.83 575.31 857.42 575.31S894 582.24 925.81 582.24S960.14 570.69 994.19 570.69S1028.97 575.49 1062.58 575.49S1099.1 574.69 1130.97 574.69S1165.32 566.2 1199.35 566.2S1234.91 571.49 1267.74 571.49S1303.66 564.57 1336.13 564.57S1370.52 579.1 1404.52 579.1S1440.96 566.05 1472.9 566.05S1507.97 577.8 1541.29 577.8S1577.71 565.1 1609.68 565.1S1644.05 569.63 1678.06 569.63S1712.44 581.56 1746.45 581.56S1782.95 583.82 1814.84 583.82S1849.67 568.7 1883.23 568.7S1919.74 565.62 1951.61 565.62S1987.22 566.37 2020 566.37S2055.64 570.21 2088.39 570.21L2020 969 L-100 969 Z;M-100 583.44C-64.75 584.66 -65.77 564.7 -31.61 564.7S2.69 578.75 36.77 578.75S72.2 566.7 105.16 566.7S140.31 568.45 173.55 568.45S208.37 577.53 241.94 577.53S276.98 565.47 310.32 565.47S345.06 578.93 378.71 578.93S414.93 583.42 447.1 583.42S482.39 572.02 515.48 572.02S551.97 574.73 583.87 574.73S619.91 575.56 652.26 575.56S687.6 567.52 720.65 567.52S756.92 580.48 789.03 580.48S824.4 579.17 857.42 579.17S892.73 568.68 925.81 568.68S962.06 580.23 994.19 580.23S1028.74 582.76 1062.58 582.76S1098.6 574.11 1130.97 574.11S1165.63 562.41 1199.35 562.41S1235 562.19 1267.74 562.19S1302.63 570.81 1336.13 570.81S1372.49 585.98 1404.52 585.98S1439.13 572.06 1472.9 572.06S1507.42 574.98 1541.29 574.98S1575.62 574.53 1609.68 574.53S1644.52 563.18 1678.06 563.18S1712.99 569.01 1746.45 569.01S1781.1 573.67 1814.84 573.67S1849.77 565.42 1883.23 565.42S1919.09 576.73 1951.61 576.73S1988.05 581.97 2020 581.97S2056.32 568.47 2088.39 568.47L2020 969 L-100 969 Z" fill="#0F3135" stroke-width="0px"></animate>
  <animateTransform attributeName="transform" type="translate" dur="25s" begin="0s" repeatCount="indefinite" values="0;10;0" calcMode="spline" keySplines="0.3 0 0.7 1;0.3 0 0.7 1" fill="#0F3135" stroke-width="0px"></animateTransform>
</path><path d="M-100 608.29C-64.16 605.96 -63.03 610.29 -29.8 610.29S7.15 606.71 40.4 606.71S76.85 597.43 110.6 597.43S146.46 589.47 180.79 589.47S217.3 610.84 250.99 610.84S288.25 601.51 321.19 601.51S358.61 602.64 391.39 602.64S427.82 604.22 461.59 604.22S497.18 605.26 531.79 605.26S569.11 606.8 601.99 606.8S638.56 596.9 672.19 596.9S709.25 605.59 742.38 605.59S779.67 604.38 812.58 604.38S848.53 592.94 882.78 592.94S918.31 597.61 952.98 597.61S990.02 600.57 1023.18 600.57S1060.56 595.51 1093.38 595.51S1129.32 597.63 1163.58 597.63S1200.81 600.58 1233.77 600.58S1268.89 589.22 1303.97 589.22S1339.12 602.39 1374.17 602.39S1410.25 605.38 1444.37 605.38S1479.53 606.72 1514.57 606.72S1549.8 600.76 1584.77 600.76S1620.52 609.46 1654.97 609.46S1691.8 596.41 1725.17 596.41S1760.99 600.95 1795.36 600.95S1831.11 598.8 1865.56 598.8S1902.95 613.57 1935.76 613.57S1972.22 595.8 2005.96 595.8S2043.09 608.29 2076.16 608.29L2020 969 L-100 969 Z" fill="#254346" stroke-width="0px">
  <animate attributeName="d" dur="22.5s" repeatCount="indefinite" values="M-100 608.29C-64.16 605.96 -63.03 610.29 -29.8 610.29S7.15 606.71 40.4 606.71S76.85 597.43 110.6 597.43S146.46 589.47 180.79 589.47S217.3 610.84 250.99 610.84S288.25 601.51 321.19 601.51S358.61 602.64 391.39 602.64S427.82 604.22 461.59 604.22S497.18 605.26 531.79 605.26S569.11 606.8 601.99 606.8S638.56 596.9 672.19 596.9S709.25 605.59 742.38 605.59S779.67 604.38 812.58 604.38S848.53 592.94 882.78 592.94S918.31 597.61 952.98 597.61S990.02 600.57 1023.18 600.57S1060.56 595.51 1093.38 595.51S1129.32 597.63 1163.58 597.63S1200.81 600.58 1233.77 600.58S1268.89 589.22 1303.97 589.22S1339.12 602.39 1374.17 602.39S1410.25 605.38 1444.37 605.38S1479.53 606.72 1514.57 606.72S1549.8 600.76 1584.77 600.76S1620.52 609.46 1654.97 609.46S1691.8 596.41 1725.17 596.41S1760.99 600.95 1795.36 600.95S1831.11 598.8 1865.56 598.8S1902.95 613.57 1935.76 613.57S1972.22 595.8 2005.96 595.8S2043.09 608.29 2076.16 608.29L2020 969 L-100 969 Z;M-100 609.71C-64.55 603.63 -62.88 596.33 -29.8 596.33S5.32 602.25 40.4 602.25S76.46 603.2 110.6 603.2S148.1 609.98 180.79 609.98S216.34 614.29 250.99 614.29S287.23 598.76 321.19 598.76S358.35 611.56 391.39 611.56S426.94 597.98 461.59 597.98S498.03 605.38 531.79 605.38S568.02 598.83 601.99 598.83S638.56 605.6 672.19 605.6S708.41 599.38 742.38 599.38S779.64 586.66 812.58 586.66S847.69 602.6 882.78 602.6S918.29 595.18 952.98 595.18S988.59 605.15 1023.18 605.15S1060.49 611.71 1093.38 611.71S1129.57 589.26 1163.58 589.26S1198.97 594.75 1233.77 594.75S1269.19 588.82 1303.97 588.82S1339.18 615.14 1374.17 615.14S1411.29 597.05 1444.37 597.05S1481.82 603.18 1514.57 603.18S1551.35 591.84 1584.77 591.84S1620.79 599.03 1654.97 599.03S1691.26 590.46 1725.17 590.46S1761.02 603.88 1795.36 603.88S1831.27 594.41 1865.56 594.41S1901.55 588.45 1935.76 588.45S1972.93 601.66 2005.96 601.66S2041.23 609.24 2076.16 609.24L2020 969 L-100 969 Z;M-100 608.29C-64.16 605.96 -63.03 610.29 -29.8 610.29S7.15 606.71 40.4 606.71S76.85 597.43 110.6 597.43S146.46 589.47 180.79 589.47S217.3 610.84 250.99 610.84S288.25 601.51 321.19 601.51S358.61 602.64 391.39 602.64S427.82 604.22 461.59 604.22S497.18 605.26 531.79 605.26S569.11 606.8 601.99 606.8S638.56 596.9 672.19 596.9S709.25 605.59 742.38 605.59S779.67 604.38 812.58 604.38S848.53 592.94 882.78 592.94S918.31 597.61 952.98 597.61S990.02 600.57 1023.18 600.57S1060.56 595.51 1093.38 595.51S1129.32 597.63 1163.58 597.63S1200.81 600.58 1233.77 600.58S1268.89 589.22 1303.97 589.22S1339.12 602.39 1374.17 602.39S1410.25 605.38 1444.37 605.38S1479.53 606.72 1514.57 606.72S1549.8 600.76 1584.77 600.76S1620.52 609.46 1654.97 609.46S1691.8 596.41 1725.17 596.41S1760.99 600.95 1795.36 600.95S1831.11 598.8 1865.56 598.8S1902.95 613.57 1935.76 613.57S1972.22 595.8 2005.96 595.8S2043.09 608.29 2076.16 608.29L2020 969 L-100 969 Z" fill="#254346" stroke-width="0px"></animate>
  <animateTransform attributeName="transform" type="translate" dur="22.5s" begin="-2.25s" repeatCount="indefinite" values="0;10;0" calcMode="spline" keySplines="0.3 0 0.7 1;0.3 0 0.7 1" fill="#254346" stroke-width="0px"></animateTransform>
</path><path d="M-100 625.18C-63.38 622.42 -62.6 638.42 -27.89 638.42S9.25 616.94 44.22 616.94S82.53 637.31 116.33 637.31S152.42 618.91 188.44 618.91S226.51 615.23 260.54 615.23S298.48 622.97 332.65 622.97S369.94 635.93 404.76 635.93S442.79 627.03 476.87 627.03S514.78 629.64 548.98 629.64S585.85 623.56 621.09 623.56S659.17 624.26 693.2 624.26S729.99 631.68 765.31 631.68S802.93 642.14 837.41 642.14S874.04 618.52 909.52 618.52S947.5 621.75 981.63 621.75S1019.6 618.49 1053.74 618.49S1090.1 637.94 1125.85 637.94S1163.9 617.57 1197.96 617.57S1236.05 621.65 1270.07 621.65S1307.14 613.62 1342.18 613.62S1380.2 632.56 1414.29 632.56S1451.03 621.64 1486.39 621.64S1524.34 636.92 1558.5 636.92S1596.8 632.44 1630.61 632.44S1668.14 619.92 1702.72 619.92S1739.99 631.31 1774.83 631.31S1811.27 632.9 1846.94 632.9S1884.16 612.31 1919.05 612.31S1955.21 630.25 1991.16 630.25S2029.56 616.87 2063.27 616.87L2020 969 L-100 969 Z" fill="#3B5658" stroke-width="0px">
  <animate attributeName="d" dur="20s" repeatCount="indefinite" values="M-100 625.18C-63.38 622.42 -62.6 638.42 -27.89 638.42S9.25 616.94 44.22 616.94S82.53 637.31 116.33 637.31S152.42 618.91 188.44 618.91S226.51 615.23 260.54 615.23S298.48 622.97 332.65 622.97S369.94 635.93 404.76 635.93S442.79 627.03 476.87 627.03S514.78 629.64 548.98 629.64S585.85 623.56 621.09 623.56S659.17 624.26 693.2 624.26S729.99 631.68 765.31 631.68S802.93 642.14 837.41 642.14S874.04 618.52 909.52 618.52S947.5 621.75 981.63 621.75S1019.6 618.49 1053.74 618.49S1090.1 637.94 1125.85 637.94S1163.9 617.57 1197.96 617.57S1236.05 621.65 1270.07 621.65S1307.14 613.62 1342.18 613.62S1380.2 632.56 1414.29 632.56S1451.03 621.64 1486.39 621.64S1524.34 636.92 1558.5 636.92S1596.8 632.44 1630.61 632.44S1668.14 619.92 1702.72 619.92S1739.99 631.31 1774.83 631.31S1811.27 632.9 1846.94 632.9S1884.16 612.31 1919.05 612.31S1955.21 630.25 1991.16 630.25S2029.56 616.87 2063.27 616.87L2020 969 L-100 969 Z;M-100 621.96C-63.6 612.4 -62.01 623.13 -27.89 623.13S9.7 615.98 44.22 615.98S82.18 626.95 116.33 626.95S154.59 624.8 188.44 624.8S225.29 639.66 260.54 639.66S297.94 630.16 332.65 630.16S370.47 636.81 404.76 636.81S441.55 633.21 476.87 633.21S515.34 616.74 548.98 616.74S586.99 633.61 621.09 633.61S659.11 626.77 693.2 626.77S731.27 620.97 765.31 620.97S803.72 629.15 837.41 629.15S875.41 623.69 909.52 623.69S946.62 631.49 981.63 631.49S1019.3 616.79 1053.74 616.79S1090.1 638.92 1125.85 638.92S1163.2 626.97 1197.96 626.97S1234.16 640.82 1270.07 640.82S1307.2 631.75 1342.18 631.75S1379.13 623.98 1414.29 623.98S1452.53 619.85 1486.39 619.85S1522.79 619.77 1558.5 619.77S1595.05 611.21 1630.61 611.21S1667.51 635.79 1702.72 635.79S1740.91 630.01 1774.83 630.01S1811.13 627.56 1846.94 627.56S1883.42 610.59 1919.05 610.59S1956.52 633.29 1991.16 633.29S2028.5 626.68 2063.27 626.68L2020 969 L-100 969 Z;M-100 625.18C-63.38 622.42 -62.6 638.42 -27.89 638.42S9.25 616.94 44.22 616.94S82.53 637.31 116.33 637.31S152.42 618.91 188.44 618.91S226.51 615.23 260.54 615.23S298.48 622.97 332.65 622.97S369.94 635.93 404.76 635.93S442.79 627.03 476.87 627.03S514.78 629.64 548.98 629.64S585.85 623.56 621.09 623.56S659.17 624.26 693.2 624.26S729.99 631.68 765.31 631.68S802.93 642.14 837.41 642.14S874.04 618.52 909.52 618.52S947.5 621.75 981.63 621.75S1019.6 618.49 1053.74 618.49S1090.1 637.94 1125.85 637.94S1163.9 617.57 1197.96 617.57S1236.05 621.65 1270.07 621.65S1307.14 613.62 1342.18 613.62S1380.2 632.56 1414.29 632.56S1451.03 621.64 1486.39 621.64S1524.34 636.92 1558.5 636.92S1596.8 632.44 1630.61 632.44S1668.14 619.92 1702.72 619.92S1739.99 631.31 1774.83 631.31S1811.27 632.9 1846.94 632.9S1884.16 612.31 1919.05 612.31S1955.21 630.25 1991.16 630.25S2029.56 616.87 2063.27 616.87L2020 969 L-100 969 Z" fill="#3B5658" stroke-width="0px"></animate>
  <animateTransform attributeName="transform" type="translate" dur="20s" begin="-4s" repeatCount="indefinite" values="0;10;0" calcMode="spline" keySplines="0.3 0 0.7 1;0.3 0 0.7 1" fill="#3B5658" stroke-width="0px"></animateTransform>
</path><path d="M-100 656.77C-60.61 654.47 -61.5 657.21 -25.87 657.21S11.83 650.09 48.25 650.09S85.97 643.55 122.38 643.55S161.7 639.33 196.5 639.33S235.58 663.21 270.63 663.21S308.63 640.66 344.76 640.66S383.1 656.34 418.88 656.34S457.58 648.48 493.01 648.48S531.17 656.79 567.13 656.79S605.2 652.98 641.26 652.98S678.54 669.19 715.38 669.19S754.4 647.02 789.51 647.02S828.91 652.1 863.64 652.1S902.92 667.39 937.76 667.39S976.09 659.13 1011.89 659.13S1049.34 663.74 1086.01 663.74S1123.85 657.17 1160.14 657.17S1197.68 646.17 1234.27 646.17S1271.91 647.37 1308.39 647.37S1345.6 637.66 1382.52 637.66S1421.85 652.8 1456.64 652.8S1495.09 642.36 1530.77 642.36S1569.72 658.48 1604.9 658.48S1643.48 645.63 1679.02 645.63S1716.24 657.32 1753.15 657.32S1792.28 645.18 1827.27 645.18S1865.17 673.16 1901.4 673.16S1939.82 639.05 1975.52 639.05S2013.59 668.53 2049.65 668.53L2020 969 L-100 969 Z" fill="#51696B" stroke-width="0px">
  <animate attributeName="d" dur="17.5s" repeatCount="indefinite" values="M-100 656.77C-60.61 654.47 -61.5 657.21 -25.87 657.21S11.83 650.09 48.25 650.09S85.97 643.55 122.38 643.55S161.7 639.33 196.5 639.33S235.58 663.21 270.63 663.21S308.63 640.66 344.76 640.66S383.1 656.34 418.88 656.34S457.58 648.48 493.01 648.48S531.17 656.79 567.13 656.79S605.2 652.98 641.26 652.98S678.54 669.19 715.38 669.19S754.4 647.02 789.51 647.02S828.91 652.1 863.64 652.1S902.92 667.39 937.76 667.39S976.09 659.13 1011.89 659.13S1049.34 663.74 1086.01 663.74S1123.85 657.17 1160.14 657.17S1197.68 646.17 1234.27 646.17S1271.91 647.37 1308.39 647.37S1345.6 637.66 1382.52 637.66S1421.85 652.8 1456.64 652.8S1495.09 642.36 1530.77 642.36S1569.72 658.48 1604.9 658.48S1643.48 645.63 1679.02 645.63S1716.24 657.32 1753.15 657.32S1792.28 645.18 1827.27 645.18S1865.17 673.16 1901.4 673.16S1939.82 639.05 1975.52 639.05S2013.59 668.53 2049.65 668.53L2020 969 L-100 969 Z;M-100 653.82C-60.76 635.6 -61.12 661.77 -25.87 661.77S12.66 638.53 48.25 638.53S86.11 667.22 122.38 667.22S160.18 642.14 196.5 642.14S235.27 669.51 270.63 669.51S309.09 635.85 344.76 635.85S383.04 663.31 418.88 663.31S457.72 645.37 493.01 645.37S530.46 663.34 567.13 663.34S604.42 653.78 641.26 653.78S679.87 649.66 715.38 649.66S753.2 658.79 789.51 658.79S828.56 650.79 863.64 650.79S902.32 634.73 937.76 634.73S975.31 656.13 1011.89 656.13S1049.75 648.81 1086.01 648.81S1124 656.63 1160.14 656.63S1197.33 651.56 1234.27 651.56S1273.01 672.91 1308.39 672.91S1345.92 645.75 1382.52 645.75S1421.1 672.3 1456.64 672.3S1495.8 642.86 1530.77 642.86S1568.6 656.79 1604.9 656.79S1642.01 639.94 1679.02 639.94S1717.85 660.92 1753.15 660.92S1791.44 636.6 1827.27 636.6S1866.56 660.6 1901.4 660.6S1938.51 636.49 1975.52 636.49S2013.14 660.8 2049.65 660.8L2020 969 L-100 969 Z;M-100 656.77C-60.61 654.47 -61.5 657.21 -25.87 657.21S11.83 650.09 48.25 650.09S85.97 643.55 122.38 643.55S161.7 639.33 196.5 639.33S235.58 663.21 270.63 663.21S308.63 640.66 344.76 640.66S383.1 656.34 418.88 656.34S457.58 648.48 493.01 648.48S531.17 656.79 567.13 656.79S605.2 652.98 641.26 652.98S678.54 669.19 715.38 669.19S754.4 647.02 789.51 647.02S828.91 652.1 863.64 652.1S902.92 667.39 937.76 667.39S976.09 659.13 1011.89 659.13S1049.34 663.74 1086.01 663.74S1123.85 657.17 1160.14 657.17S1197.68 646.17 1234.27 646.17S1271.91 647.37 1308.39 647.37S1345.6 637.66 1382.52 637.66S1421.85 652.8 1456.64 652.8S1495.09 642.36 1530.77 642.36S1569.72 658.48 1604.9 658.48S1643.48 645.63 1679.02 645.63S1716.24 657.32 1753.15 657.32S1792.28 645.18 1827.27 645.18S1865.17 673.16 1901.4 673.16S1939.82 639.05 1975.52 639.05S2013.59 668.53 2049.65 668.53L2020 969 L-100 969 Z" fill="#51696B" stroke-width="0px"></animate>
  <animateTransform attributeName="transform" type="translate" dur="17.5s" begin="-5.25s" repeatCount="indefinite" values="0;10;0" calcMode="spline" keySplines="0.3 0 0.7 1;0.3 0 0.7 1" fill="#51696B" stroke-width="0px"></animateTransform>
</path><path d="M-100 681.84C-61.32 692.44 -60.07 700.09 -23.74 700.09S14.56 679.18 52.52 679.18S92.01 682.58 128.78 682.58S167.45 683 205.04 683S244.86 693.78 281.29 693.78S320.58 661.58 357.55 661.58S397.26 685.01 433.81 685.01S472.92 676.15 510.07 676.15S548.21 684.91 586.33 684.91S625.14 664.73 662.59 664.73S702.23 700.69 738.85 700.69S777.08 674.22 815.11 674.22S854.43 690.24 891.37 690.24S929.83 695.05 967.63 695.05S1006.35 679.88 1043.88 679.88S1083.89 659.92 1120.14 659.92S1159.2 699.63 1196.4 699.63S1235.79 667.86 1272.66 667.86S1311 701.76 1348.92 701.76S1388.93 676.3 1425.18 676.3S1465.5 682.59 1501.44 682.59S1541.82 678.27 1577.7 678.27S1617.73 692.37 1653.96 692.37S1692.74 668.23 1730.22 668.23S1769.77 687.67 1806.47 687.67S1846.12 669.75 1882.73 669.75S1922.64 697.2 1958.99 697.2S1997.6 686.8 2035.25 686.8L2020 969 L-100 969 Z" fill="#677D7F" stroke-width="0px">
  <animate attributeName="d" dur="15s" repeatCount="indefinite" values="M-100 681.84C-61.32 692.44 -60.07 700.09 -23.74 700.09S14.56 679.18 52.52 679.18S92.01 682.58 128.78 682.58S167.45 683 205.04 683S244.86 693.78 281.29 693.78S320.58 661.58 357.55 661.58S397.26 685.01 433.81 685.01S472.92 676.15 510.07 676.15S548.21 684.91 586.33 684.91S625.14 664.73 662.59 664.73S702.23 700.69 738.85 700.69S777.08 674.22 815.11 674.22S854.43 690.24 891.37 690.24S929.83 695.05 967.63 695.05S1006.35 679.88 1043.88 679.88S1083.89 659.92 1120.14 659.92S1159.2 699.63 1196.4 699.63S1235.79 667.86 1272.66 667.86S1311 701.76 1348.92 701.76S1388.93 676.3 1425.18 676.3S1465.5 682.59 1501.44 682.59S1541.82 678.27 1577.7 678.27S1617.73 692.37 1653.96 692.37S1692.74 668.23 1730.22 668.23S1769.77 687.67 1806.47 687.67S1846.12 669.75 1882.73 669.75S1922.64 697.2 1958.99 697.2S1997.6 686.8 2035.25 686.8L2020 969 L-100 969 Z;M-100 668.66C-60.46 669.02 -61.6 684.24 -23.74 684.24S15.3 681.92 52.52 681.92S90.87 699.27 128.78 699.27S168.91 687.84 205.04 687.84S245.53 700.36 281.29 700.36S320.54 679.71 357.55 679.71S397.77 682.33 433.81 682.33S473.46 681.5 510.07 681.5S549.5 684.21 586.33 684.21S625.24 682.44 662.59 682.44S701.12 694.74 738.85 694.74S777.45 670.2 815.11 670.2S855.09 661.7 891.37 661.7S930.69 665.13 967.63 665.13S1007.59 680.26 1043.88 680.26S1082.07 671.57 1120.14 671.57S1158.61 698.45 1196.4 698.45S1235.2 680.81 1272.66 680.81S1312.99 687.79 1348.92 687.79S1388.17 681.62 1425.18 681.62S1463.6 692.22 1501.44 692.22S1539.72 688.89 1577.7 688.89S1618 689.33 1653.96 689.33S1692.87 683.66 1730.22 683.66S1769.61 699.19 1806.47 699.19S1845.55 668.83 1882.73 668.83S1921.09 692.08 1958.99 692.08S1999.21 674.46 2035.25 674.46L2020 969 L-100 969 Z;M-100 681.84C-61.32 692.44 -60.07 700.09 -23.74 700.09S14.56 679.18 52.52 679.18S92.01 682.58 128.78 682.58S167.45 683 205.04 683S244.86 693.78 281.29 693.78S320.58 661.58 357.55 661.58S397.26 685.01 433.81 685.01S472.92 676.15 510.07 676.15S548.21 684.91 586.33 684.91S625.14 664.73 662.59 664.73S702.23 700.69 738.85 700.69S777.08 674.22 815.11 674.22S854.43 690.24 891.37 690.24S929.83 695.05 967.63 695.05S1006.35 679.88 1043.88 679.88S1083.89 659.92 1120.14 659.92S1159.2 699.63 1196.4 699.63S1235.79 667.86 1272.66 667.86S1311 701.76 1348.92 701.76S1388.93 676.3 1425.18 676.3S1465.5 682.59 1501.44 682.59S1541.82 678.27 1577.7 678.27S1617.73 692.37 1653.96 692.37S1692.74 668.23 1730.22 668.23S1769.77 687.67 1806.47 687.67S1846.12 669.75 1882.73 669.75S1922.64 697.2 1958.99 697.2S1997.6 686.8 2035.25 686.8L2020 969 L-100 969 Z" fill="#677D7F" stroke-width="0px"></animate>
  <animateTransform attributeName="transform" type="translate" dur="15s" begin="-6s" repeatCount="indefinite" values="0;10;0" calcMode="spline" keySplines="0.3 0 0.7 1;0.3 0 0.7 1" fill="#677D7F" stroke-width="0px"></animateTransform>
</path><path d="M-100 692.05C-60.48 696.56 -58.39 718.64 -21.48 718.64S19.12 691.11 57.04 691.11S96.55 696.56 135.56 696.56S175.22 691.85 214.07 691.85S255.68 717.16 292.59 717.16S333.73 697.9 371.11 697.9S410.49 707.56 449.63 707.56S489.97 700.01 528.15 700.01S568.04 716.06 606.67 716.06S648.31 701.86 685.19 701.86S726.18 716.59 763.7 716.59S803.47 694.84 842.22 694.84S881.66 693.02 920.74 693.02S960.05 695.02 999.26 695.02S1039.76 727.32 1077.78 727.32S1118.75 707.81 1156.3 707.81S1196.44 716.71 1234.81 716.71S1275.19 687.82 1313.33 687.82S1353.99 718.27 1391.85 718.27S1431.27 691.42 1470.37 691.42S1510.01 713.44 1548.89 713.44S1590.4 713.59 1627.41 713.59S1666.91 725.99 1705.93 725.99S1747.42 698.86 1784.44 698.86S1825.82 713.51 1862.96 713.51S1903.31 695.78 1941.48 695.78S1982.1 729.35 2020 729.35S2059.87 685.37 2098.52 685.37L2020 969 L-100 969 Z" fill="#7E9193" stroke-width="0px">
  <animate attributeName="d" dur="12.5s" repeatCount="indefinite" values="M-100 692.05C-60.48 696.56 -58.39 718.64 -21.48 718.64S19.12 691.11 57.04 691.11S96.55 696.56 135.56 696.56S175.22 691.85 214.07 691.85S255.68 717.16 292.59 717.16S333.73 697.9 371.11 697.9S410.49 707.56 449.63 707.56S489.97 700.01 528.15 700.01S568.04 716.06 606.67 716.06S648.31 701.86 685.19 701.86S726.18 716.59 763.7 716.59S803.47 694.84 842.22 694.84S881.66 693.02 920.74 693.02S960.05 695.02 999.26 695.02S1039.76 727.32 1077.78 727.32S1118.75 707.81 1156.3 707.81S1196.44 716.71 1234.81 716.71S1275.19 687.82 1313.33 687.82S1353.99 718.27 1391.85 718.27S1431.27 691.42 1470.37 691.42S1510.01 713.44 1548.89 713.44S1590.4 713.59 1627.41 713.59S1666.91 725.99 1705.93 725.99S1747.42 698.86 1784.44 698.86S1825.82 713.51 1862.96 713.51S1903.31 695.78 1941.48 695.78S1982.1 729.35 2020 729.35S2059.87 685.37 2098.52 685.37L2020 969 L-100 969 Z;M-100 697.46C-60.24 703.1 -59.11 720.31 -21.48 720.31S19.19 696.29 57.04 696.29S97.04 711.47 135.56 711.47S175.96 689.84 214.07 689.84S253.84 717.59 292.59 717.59S332.99 700.44 371.11 700.44S410.51 685.5 449.63 685.5S491.19 701.2 528.15 701.2S568.32 709.54 606.67 709.54S646.38 685.63 685.19 685.63S725.88 716.02 763.7 716.02S803.19 709.94 842.22 709.94S883.27 727.68 920.74 727.68S962.3 683.23 999.26 683.23S1039.94 714.51 1077.78 714.51S1119.39 697 1156.3 697S1196.8 724.18 1234.81 724.18S1274.69 697.08 1313.33 697.08S1353.3 684.2 1391.85 684.2S1431.84 697.87 1470.37 697.87S1509.97 730.97 1548.89 730.97S1590.37 695.41 1627.41 695.41S1667.55 723.07 1705.93 723.07S1746.35 707.07 1784.44 707.07S1824.21 717.13 1862.96 717.13S1904.39 684.61 1941.48 684.61S1981.77 722.77 2020 722.77S2061.31 689.8 2098.52 689.8L2020 969 L-100 969 Z;M-100 692.05C-60.48 696.56 -58.39 718.64 -21.48 718.64S19.12 691.11 57.04 691.11S96.55 696.56 135.56 696.56S175.22 691.85 214.07 691.85S255.68 717.16 292.59 717.16S333.73 697.9 371.11 697.9S410.49 707.56 449.63 707.56S489.97 700.01 528.15 700.01S568.04 716.06 606.67 716.06S648.31 701.86 685.19 701.86S726.18 716.59 763.7 716.59S803.47 694.84 842.22 694.84S881.66 693.02 920.74 693.02S960.05 695.02 999.26 695.02S1039.76 727.32 1077.78 727.32S1118.75 707.81 1156.3 707.81S1196.44 716.71 1234.81 716.71S1275.19 687.82 1313.33 687.82S1353.99 718.27 1391.85 718.27S1431.27 691.42 1470.37 691.42S1510.01 713.44 1548.89 713.44S1590.4 713.59 1627.41 713.59S1666.91 725.99 1705.93 725.99S1747.42 698.86 1784.44 698.86S1825.82 713.51 1862.96 713.51S1903.31 695.78 1941.48 695.78S1982.1 729.35 2020 729.35S2059.87 685.37 2098.52 685.37L2020 969 L-100 969 Z" fill="#7E9193" stroke-width="0px"></animate>
  <animateTransform attributeName="transform" type="translate" dur="12.5s" begin="-6.25s" repeatCount="indefinite" values="0;10;0" calcMode="spline" keySplines="0.3 0 0.7 1;0.3 0 0.7 1" fill="#7E9193" stroke-width="0px"></animateTransform>
</path><path d="M-100 730.55C-57.23 719.35 -57.64 715.92 -19.08 715.92S21.97 722.61 61.83 722.61S103.58 742.31 142.75 742.31S183.31 711.61 223.66 711.61S264.38 751.41 304.58 751.41S345.51 721.65 385.5 721.65S426.34 755.3 466.41 755.3S508.59 755.89 547.33 755.89S588.32 758.33 628.24 758.33S670.33 746.9 709.16 746.9S749.93 712.24 790.08 712.24S831.85 739.41 870.99 739.41S912.4 758.25 951.91 758.25S992.46 715.33 1032.82 715.33S1074.66 750.11 1113.74 750.11S1155.49 725.42 1194.66 725.42S1237.29 756.23 1275.57 756.23S1316.41 724.95 1356.49 724.95S1398.08 741.07 1437.4 741.07S1478.86 708.1 1518.32 708.1S1559.13 743.28 1599.24 743.28S1641.38 725.06 1680.15 725.06S1721.16 723 1761.07 723S1802.58 721.84 1841.98 721.84S1883.3 743.31 1922.9 743.31S1965.22 724.81 2003.82 724.81S2044.93 747.34 2084.73 747.34L2020 969 L-100 969 Z" fill="#95A6A7" stroke-width="0px">
  <animate attributeName="d" dur="10s" repeatCount="indefinite" values="M-100 730.55C-57.23 719.35 -57.64 715.92 -19.08 715.92S21.97 722.61 61.83 722.61S103.58 742.31 142.75 742.31S183.31 711.61 223.66 711.61S264.38 751.41 304.58 751.41S345.51 721.65 385.5 721.65S426.34 755.3 466.41 755.3S508.59 755.89 547.33 755.89S588.32 758.33 628.24 758.33S670.33 746.9 709.16 746.9S749.93 712.24 790.08 712.24S831.85 739.41 870.99 739.41S912.4 758.25 951.91 758.25S992.46 715.33 1032.82 715.33S1074.66 750.11 1113.74 750.11S1155.49 725.42 1194.66 725.42S1237.29 756.23 1275.57 756.23S1316.41 724.95 1356.49 724.95S1398.08 741.07 1437.4 741.07S1478.86 708.1 1518.32 708.1S1559.13 743.28 1599.24 743.28S1641.38 725.06 1680.15 725.06S1721.16 723 1761.07 723S1802.58 721.84 1841.98 721.84S1883.3 743.31 1922.9 743.31S1965.22 724.81 2003.82 724.81S2044.93 747.34 2084.73 747.34L2020 969 L-100 969 Z;M-100 719.89C-57.78 731.46 -57.85 710.01 -19.08 710.01S23.42 718.9 61.83 718.9S103.88 751.95 142.75 751.95S185.38 715.3 223.66 715.3S265.02 756.96 304.58 756.96S347.41 715.65 385.5 715.65S427.57 749.04 466.41 749.04S507.03 716.46 547.33 716.46S588.51 745.96 628.24 745.96S669.28 721.64 709.16 721.64S750.55 759.01 790.08 759.01S830.85 716.39 870.99 716.39S913.02 712 951.91 712S993.5 709.66 1032.82 709.66S1073.97 754.66 1113.74 754.66S1155.35 744.87 1194.66 744.87S1236.43 747.86 1275.57 747.86S1317.24 718.06 1356.49 718.06S1397.55 743.14 1437.4 743.14S1478.38 725.68 1518.32 725.68S1560 751.08 1599.24 751.08S1640.77 714.84 1680.15 714.84S1720.7 759.42 1761.07 759.42S1802.1 721.19 1841.98 721.19S1884.01 749.85 1922.9 749.85S1964.55 708.44 2003.82 708.44S2046.16 736.82 2084.73 736.82L2020 969 L-100 969 Z;M-100 730.55C-57.23 719.35 -57.64 715.92 -19.08 715.92S21.97 722.61 61.83 722.61S103.58 742.31 142.75 742.31S183.31 711.61 223.66 711.61S264.38 751.41 304.58 751.41S345.51 721.65 385.5 721.65S426.34 755.3 466.41 755.3S508.59 755.89 547.33 755.89S588.32 758.33 628.24 758.33S670.33 746.9 709.16 746.9S749.93 712.24 790.08 712.24S831.85 739.41 870.99 739.41S912.4 758.25 951.91 758.25S992.46 715.33 1032.82 715.33S1074.66 750.11 1113.74 750.11S1155.49 725.42 1194.66 725.42S1237.29 756.23 1275.57 756.23S1316.41 724.95 1356.49 724.95S1398.08 741.07 1437.4 741.07S1478.86 708.1 1518.32 708.1S1559.13 743.28 1599.24 743.28S1641.38 725.06 1680.15 725.06S1721.16 723 1761.07 723S1802.58 721.84 1841.98 721.84S1883.3 743.31 1922.9 743.31S1965.22 724.81 2003.82 724.81S2044.93 747.34 2084.73 747.34L2020 969 L-100 969 Z" fill="#95A6A7" stroke-width="0px"></animate>
  <animateTransform attributeName="transform" type="translate" dur="10s" begin="-6s" repeatCount="indefinite" values="0;10;0" calcMode="spline" keySplines="0.3 0 0.7 1;0.3 0 0.7 1" fill="#95A6A7" stroke-width="0px"></animateTransform>
</path><path d="M-100 789.62C-56.57 781.88 -57.45 774.28 -16.54 774.28S27.61 735.91 66.93 735.91S109.9 777.27 150.39 777.27S193.05 750.19 233.86 750.19S277.23 789 317.32 789S360.33 752.73 400.79 752.73S443.42 773.77 484.25 773.77S527.68 732.29 567.72 732.29S610.35 767.11 651.18 767.11S694.29 741.99 734.65 741.99S776.84 788.81 818.11 788.81S860.13 765.99 901.57 765.99S944.18 782.07 985.04 782.07S1026.79 732.76 1068.5 732.76S1111.5 784.03 1151.97 784.03S1195.26 783.08 1235.43 783.08S1279.4 748.01 1318.9 748.01S1362.84 743.97 1402.36 743.97S1445.17 753.4 1485.83 753.4S1528.82 746.05 1569.29 746.05S1611.19 768.5 1652.76 768.5S1694.52 752.39 1736.22 752.39S1778.89 776.07 1819.69 776.07S1862.25 743.1 1903.15 743.1S1946.61 770.13 1986.61 770.13S2028.91 745.69 2070.08 745.69L2020 969 L-100 969 Z" fill="#ADBCBC" stroke-width="0px">
  <animate attributeName="d" dur="7.5s" repeatCount="indefinite" values="M-100 789.62C-56.57 781.88 -57.45 774.28 -16.54 774.28S27.61 735.91 66.93 735.91S109.9 777.27 150.39 777.27S193.05 750.19 233.86 750.19S277.23 789 317.32 789S360.33 752.73 400.79 752.73S443.42 773.77 484.25 773.77S527.68 732.29 567.72 732.29S610.35 767.11 651.18 767.11S694.29 741.99 734.65 741.99S776.84 788.81 818.11 788.81S860.13 765.99 901.57 765.99S944.18 782.07 985.04 782.07S1026.79 732.76 1068.5 732.76S1111.5 784.03 1151.97 784.03S1195.26 783.08 1235.43 783.08S1279.4 748.01 1318.9 748.01S1362.84 743.97 1402.36 743.97S1445.17 753.4 1485.83 753.4S1528.82 746.05 1569.29 746.05S1611.19 768.5 1652.76 768.5S1694.52 752.39 1736.22 752.39S1778.89 776.07 1819.69 776.07S1862.25 743.1 1903.15 743.1S1946.61 770.13 1986.61 770.13S2028.91 745.69 2070.08 745.69L2020 969 L-100 969 Z;M-100 777.31C-57.53 766.43 -56.13 787.72 -16.54 787.72S25.98 773.77 66.93 773.77S108.97 784.16 150.39 784.16S192.75 755.14 233.86 755.14S276.1 770.66 317.32 770.66S359.47 774.28 400.79 774.28S442.73 748.46 484.25 748.46S526.16 755.82 567.72 755.82S611.67 771.98 651.18 771.98S692.95 750.42 734.65 750.42S778.7 784.15 818.11 784.15S861.47 743.41 901.57 743.41S944.04 771.59 985.04 771.59S1028.3 773.72 1068.5 773.72S1112.14 778.15 1151.97 778.15S1194.42 741.37 1235.43 741.37S1277.52 788.48 1318.9 788.48S1361.22 741.9 1402.36 741.9S1445.69 786.61 1485.83 786.61S1528.37 747.94 1569.29 747.94S1611.6 784.32 1652.76 784.32S1696.62 747.2 1736.22 747.2S1780.14 778.68 1819.69 778.68S1862.19 784.18 1903.15 784.18S1946.29 788 1986.61 788S2029.06 742.68 2070.08 742.68L2020 969 L-100 969 Z;M-100 789.62C-56.57 781.88 -57.45 774.28 -16.54 774.28S27.61 735.91 66.93 735.91S109.9 777.27 150.39 777.27S193.05 750.19 233.86 750.19S277.23 789 317.32 789S360.33 752.73 400.79 752.73S443.42 773.77 484.25 773.77S527.68 732.29 567.72 732.29S610.35 767.11 651.18 767.11S694.29 741.99 734.65 741.99S776.84 788.81 818.11 788.81S860.13 765.99 901.57 765.99S944.18 782.07 985.04 782.07S1026.79 732.76 1068.5 732.76S1111.5 784.03 1151.97 784.03S1195.26 783.08 1235.43 783.08S1279.4 748.01 1318.9 748.01S1362.84 743.97 1402.36 743.97S1445.17 753.4 1485.83 753.4S1528.82 746.05 1569.29 746.05S1611.19 768.5 1652.76 768.5S1694.52 752.39 1736.22 752.39S1778.89 776.07 1819.69 776.07S1862.25 743.1 1903.15 743.1S1946.61 770.13 1986.61 770.13S2028.91 745.69 2070.08 745.69L2020 969 L-100 969 Z" fill="#ADBCBC" stroke-width="0px"></animate>
  <animateTransform attributeName="transform" type="translate" dur="7.5s" begin="-5.25s" repeatCount="indefinite" values="0;10;0" calcMode="spline" keySplines="0.3 0 0.7 1;0.3 0 0.7 1" fill="#ADBCBC" stroke-width="0px"></animateTransform>
</path><path d="M-100 771.21C-56.43 774.83 -56.75 816.77 -13.82 816.77S31.64 762.23 72.36 762.23S117.26 803.41 158.54 803.41S202.67 779.64 244.72 779.64S288.72 805.16 330.89 805.16S374.79 794.87 417.07 794.87S461.37 796.98 503.25 796.98S548.27 768.4 589.43 768.4S633.51 816.31 675.61 816.31S720.2 778.4 761.79 778.4S805.29 817.49 847.97 817.49S893.12 776.53 934.15 776.53S979.13 804.62 1020.33 804.62S1063.74 757.32 1106.5 757.32S1151.57 808.69 1192.68 808.69S1236.55 771.96 1278.86 771.96S1322.29 804.2 1365.04 804.2S1410.3 768.89 1451.22 768.89S1496.43 801.85 1537.4 801.85S1580.85 773.7 1623.58 773.7S1667.43 818.24 1709.76 818.24S1755.18 779.73 1795.93 779.73S1839.27 810.11 1882.11 810.11S1927.24 779.82 1968.29 779.82S2013.11 816.99 2054.47 816.99L2020 969 L-100 969 Z" fill="#C6D2D2" stroke-width="0px">
  <animate attributeName="d" dur="5s" repeatCount="indefinite" values="M-100 771.21C-56.43 774.83 -56.75 816.77 -13.82 816.77S31.64 762.23 72.36 762.23S117.26 803.41 158.54 803.41S202.67 779.64 244.72 779.64S288.72 805.16 330.89 805.16S374.79 794.87 417.07 794.87S461.37 796.98 503.25 796.98S548.27 768.4 589.43 768.4S633.51 816.31 675.61 816.31S720.2 778.4 761.79 778.4S805.29 817.49 847.97 817.49S893.12 776.53 934.15 776.53S979.13 804.62 1020.33 804.62S1063.74 757.32 1106.5 757.32S1151.57 808.69 1192.68 808.69S1236.55 771.96 1278.86 771.96S1322.29 804.2 1365.04 804.2S1410.3 768.89 1451.22 768.89S1496.43 801.85 1537.4 801.85S1580.85 773.7 1623.58 773.7S1667.43 818.24 1709.76 818.24S1755.18 779.73 1795.93 779.73S1839.27 810.11 1882.11 810.11S1927.24 779.82 1968.29 779.82S2013.11 816.99 2054.47 816.99L2020 969 L-100 969 Z;M-100 779.29C-56.84 778.01 -55.1 804.33 -13.82 804.33S29.9 755.98 72.36 755.98S115.61 811.72 158.54 811.72S201.91 756.65 244.72 756.65S290.12 817.22 330.89 817.22S375 762.64 417.07 762.64S460.34 805.66 503.25 805.66S548.16 759.55 589.43 759.55S633.37 805.42 675.61 805.42S721.03 760.04 761.79 760.04S805.91 813.63 847.97 813.63S893.46 771.88 934.15 771.88S978.79 808.93 1020.33 808.93S1064.97 764.49 1106.5 764.49S1150.61 814.84 1192.68 814.84S1236.56 806.54 1278.86 806.54S1323.19 756.14 1365.04 756.14S1409.44 779.95 1451.22 779.95S1496.34 811.1 1537.4 811.1S1580.52 763.88 1623.58 763.88S1667.34 800.46 1709.76 800.46S1754.1 763.61 1795.93 763.61S1839.38 796.64 1882.11 796.64S1927.12 772.33 1968.29 772.33S2012.56 807.43 2054.47 807.43L2020 969 L-100 969 Z;M-100 771.21C-56.43 774.83 -56.75 816.77 -13.82 816.77S31.64 762.23 72.36 762.23S117.26 803.41 158.54 803.41S202.67 779.64 244.72 779.64S288.72 805.16 330.89 805.16S374.79 794.87 417.07 794.87S461.37 796.98 503.25 796.98S548.27 768.4 589.43 768.4S633.51 816.31 675.61 816.31S720.2 778.4 761.79 778.4S805.29 817.49 847.97 817.49S893.12 776.53 934.15 776.53S979.13 804.62 1020.33 804.62S1063.74 757.32 1106.5 757.32S1151.57 808.69 1192.68 808.69S1236.55 771.96 1278.86 771.96S1322.29 804.2 1365.04 804.2S1410.3 768.89 1451.22 768.89S1496.43 801.85 1537.4 801.85S1580.85 773.7 1623.58 773.7S1667.43 818.24 1709.76 818.24S1755.18 779.73 1795.93 779.73S1839.27 810.11 1882.11 810.11S1927.24 779.82 1968.29 779.82S2013.11 816.99 2054.47 816.99L2020 969 L-100 969 Z" fill="#C6D2D2" stroke-width="0px"></animate>
  <animateTransform attributeName="transform" type="translate" dur="5s" begin="-4s" repeatCount="indefinite" values="0;10;0" calcMode="spline" keySplines="0.3 0 0.7 1;0.3 0 0.7 1" fill="#C6D2D2" stroke-width="0px"></animateTransform>
</path><path d="M-100 799.29C-53.82 790.51 -54.54 781.19 -10.92 781.19S34.29 784.92 78.15 784.92S123.87 842.36 167.23 842.36S213.28 785.97 256.3 785.97S300.88 838.76 345.38 838.76S390.57 800.82 434.45 800.82S481.26 833.95 523.53 833.95S569.07 843.47 612.61 843.47S657.15 837.33 701.68 837.33S748.06 795.34 790.76 795.34S836.53 832.17 879.83 832.17S926.78 792.82 968.91 792.82S1014.01 836.57 1057.98 836.57S1104.19 792.27 1147.06 792.27S1191.7 832.78 1236.13 832.78S1282.99 837.42 1325.21 837.42S1370.29 784.04 1414.29 784.04S1459.89 800.23 1503.36 800.23S1549.67 847.63 1592.44 847.63S1637.58 788.17 1681.51 788.17S1726.07 835.4 1770.59 835.4S1816.59 787.44 1859.66 787.44S1905.41 834.61 1948.74 834.61S1993.51 790.63 2037.82 790.63L2020 969 L-100 969 Z" fill="#DFE8E8" stroke-width="0px">
  <animate attributeName="d" dur="2.5s" repeatCount="indefinite" values="M-100 799.29C-53.82 790.51 -54.54 781.19 -10.92 781.19S34.29 784.92 78.15 784.92S123.87 842.36 167.23 842.36S213.28 785.97 256.3 785.97S300.88 838.76 345.38 838.76S390.57 800.82 434.45 800.82S481.26 833.95 523.53 833.95S569.07 843.47 612.61 843.47S657.15 837.33 701.68 837.33S748.06 795.34 790.76 795.34S836.53 832.17 879.83 832.17S926.78 792.82 968.91 792.82S1014.01 836.57 1057.98 836.57S1104.19 792.27 1147.06 792.27S1191.7 832.78 1236.13 832.78S1282.99 837.42 1325.21 837.42S1370.29 784.04 1414.29 784.04S1459.89 800.23 1503.36 800.23S1549.67 847.63 1592.44 847.63S1637.58 788.17 1681.51 788.17S1726.07 835.4 1770.59 835.4S1816.59 787.44 1859.66 787.44S1905.41 834.61 1948.74 834.61S1993.51 790.63 2037.82 790.63L2020 969 L-100 969 Z;M-100 800.59C-53.76 798.39 -53.65 837.79 -10.92 837.79S35.32 802.16 78.15 802.16S123.33 833.3 167.23 833.3S211.84 791.62 256.3 791.62S302.43 834.43 345.38 834.43S391.45 799.9 434.45 799.9S479.43 839.88 523.53 839.88S568.56 796.56 612.61 796.56S658.55 839.56 701.68 839.56S747.87 836.55 790.76 836.55S835.86 832.09 879.83 832.09S926.08 780.2 968.91 780.2S1014.68 787.22 1057.98 787.22S1103.87 791.5 1147.06 791.5S1192.98 841.61 1236.13 841.61S1282.15 830.65 1325.21 830.65S1372 844.44 1414.29 844.44S1460.92 783.79 1503.36 783.79S1548.68 785.17 1592.44 785.17S1637.85 802.44 1681.51 802.44S1728.1 829.33 1770.59 829.33S1816.56 783.94 1859.66 783.94S1904.88 843.12 1948.74 843.12S1995.31 792.16 2037.82 792.16L2020 969 L-100 969 Z;M-100 799.29C-53.82 790.51 -54.54 781.19 -10.92 781.19S34.29 784.92 78.15 784.92S123.87 842.36 167.23 842.36S213.28 785.97 256.3 785.97S300.88 838.76 345.38 838.76S390.57 800.82 434.45 800.82S481.26 833.95 523.53 833.95S569.07 843.47 612.61 843.47S657.15 837.33 701.68 837.33S748.06 795.34 790.76 795.34S836.53 832.17 879.83 832.17S926.78 792.82 968.91 792.82S1014.01 836.57 1057.98 836.57S1104.19 792.27 1147.06 792.27S1191.7 832.78 1236.13 832.78S1282.99 837.42 1325.21 837.42S1370.29 784.04 1414.29 784.04S1459.89 800.23 1503.36 800.23S1549.67 847.63 1592.44 847.63S1637.58 788.17 1681.51 788.17S1726.07 835.4 1770.59 835.4S1816.59 787.44 1859.66 787.44S1905.41 834.61 1948.74 834.61S1993.51 790.63 2037.82 790.63L2020 969 L-100 969 Z" fill="#DFE8E8" stroke-width="0px"></animate>
  <animateTransform attributeName="transform" type="translate" dur="2.5s" begin="-2.25s" repeatCount="indefinite" values="0;10;0" calcMode="spline" keySplines="0.3 0 0.7 1;0.3 0 0.7 1" fill="#DFE8E8" stroke-width="0px"></animateTransform>
</path></g>
</svg>